<svg width="51" height="32" viewBox="0 0 51 32" fill="none" xmlns="http://www.w3.org/2000/svg">
<path d="M47.9608 23.9886C45.5058 27.4247 41.3866 29.6775 36.7363 29.6775C32.0742 29.6775 27.9668 27.4247 25.5 23.9886C29.4185 25.7749 34.1397 25.7408 38.1763 23.4994C39.9939 22.4867 41.4692 21.1442 42.5905 19.574C44.7622 20.5753 46.6153 22.0999 47.9608 23.9886Z" fill="#477E77"/>
<path d="M36.2288 17.4578C37.2674 15.7056 37.8576 13.8169 38.011 11.9282C40.407 11.7461 42.803 12.1785 44.9511 13.1683C44.7622 15.4553 43.9478 17.6739 42.5905 19.574C40.8201 18.7662 38.8254 18.3111 36.7363 18.3111C36.3665 18.3111 36.0006 18.3225 35.6386 18.3452C35.8432 18.0646 36.0399 17.7687 36.2288 17.4578Z" fill="#8AC8C2"/>
<path d="M25.5 23.9886C29.4775 23.6814 33.2427 21.7017 35.6386 18.3452C36.0006 18.3225 36.3665 18.3111 36.7363 18.3111C38.8254 18.3111 40.8201 18.7662 42.5905 19.574C41.4692 21.1442 39.9939 22.4867 38.1763 23.4994C34.1397 25.7408 29.4185 25.7749 25.5 23.9886Z" fill="#5EA49B"/>
<path d="M31.4014 13.1683C31.4014 11.1431 30.9293 9.23164 30.0795 7.51359C32.0624 6.20515 34.3639 5.42008 36.7363 5.23804C37.7514 7.30879 38.1999 9.62986 38.011 11.9282C36.0517 12.0875 34.0925 12.645 32.2748 13.6576C31.9601 13.8321 31.6532 14.0179 31.3542 14.2151C31.3857 13.8738 31.4014 13.5249 31.4014 13.1683Z" fill="#CCE8E5"/>
<path d="M25.5 23.9886C26.4442 22.6802 27.6245 21.5424 28.9818 20.6322C30.9057 19.3579 33.1836 18.5387 35.6386 18.3452C33.2427 21.7017 29.4775 23.6814 25.5 23.9886Z" fill="#8AC8C2"/>
<path d="M20.9205 7.51359C21.9473 5.43146 23.5407 3.64514 25.5 2.3367C27.4593 3.64514 29.0527 5.43146 30.0795 7.51359C28.4625 8.59448 27.058 10.0281 26.0075 11.7689C25.8265 12.0799 25.6574 12.3947 25.5 12.7132C25.3426 12.3947 25.1734 12.0799 24.9925 11.7689C23.942 10.0281 22.5375 8.59448 20.9205 7.51359Z" fill="#8AC8C2"/>
<path d="M30.0795 7.51358C30.9293 9.23162 31.4014 11.1431 31.4014 13.1683C31.4014 13.5248 31.3857 13.8738 31.3542 14.2151C29.3241 15.569 27.7779 17.3781 26.7747 19.4034C26.9635 17.1619 26.5622 14.8522 25.5 12.7132C25.6574 12.3946 25.8265 12.0799 26.0075 11.7689C27.058 10.0281 28.4625 8.59447 30.0795 7.51358Z" fill="#6FB7AF"/>
<path d="M25.5 23.9886C25.6298 22.4071 26.0665 20.8483 26.7747 19.4034C27.7779 17.3781 29.3241 15.5691 31.3542 14.2151C31.6532 14.0179 31.9601 13.832 32.2748 13.6576C34.0925 12.645 36.0517 12.0875 38.011 11.9282C37.8576 13.8169 37.2674 15.7056 36.2288 17.4578C36.0399 17.7688 35.8432 18.0646 35.6386 18.3452C33.1836 18.5386 30.9057 19.3579 28.9818 20.6322C27.6245 21.5424 26.4442 22.6802 25.5 23.9886Z" fill="#5EA49B"/>
<path d="M18.7251 13.6576C16.9075 12.645 14.9482 12.0875 12.989 11.9282C12.8001 9.62986 13.2486 7.30879 14.2637 5.23804C16.636 5.42008 18.9376 6.20515 20.9205 7.51359C20.0707 9.23164 19.5986 11.1431 19.5986 13.1683C19.5986 13.5249 19.6143 13.8738 19.6458 14.2151C19.3468 14.0179 19.0399 13.8321 18.7251 13.6576Z" fill="#CCE8E5"/>
<path d="M19.5986 13.1683C19.5986 11.1431 20.0707 9.23162 20.9205 7.51358C22.5375 8.59447 23.942 10.0281 24.9925 11.7689C25.1734 12.0799 25.3426 12.3946 25.5 12.7132C24.4377 14.8522 24.0364 17.1619 24.2253 19.4034C23.222 17.3781 21.6759 15.569 19.6458 14.2151C19.6143 13.8738 19.5986 13.5248 19.5986 13.1683Z" fill="#6FB7AF"/>
<path d="M26.7747 19.4034C26.0665 20.8483 25.6298 22.4071 25.5 23.9886C25.3701 22.4071 24.9334 20.8483 24.2253 19.4034C24.0364 17.1619 24.4377 14.8522 25.5 12.7132C26.5622 14.8522 26.9635 17.1619 26.7747 19.4034Z" fill="#8AC8C2"/>
<path d="M14.2637 18.3111C12.1746 18.3111 10.1799 18.7662 8.40946 19.574C7.05213 17.6739 6.23773 15.4553 6.04889 13.1683C8.19701 12.1785 10.593 11.7461 12.989 11.9282C13.1424 13.8169 13.7325 15.7056 14.7712 17.4578C14.96 17.7687 15.1568 18.0646 15.3613 18.3452C14.9994 18.3225 14.6335 18.3111 14.2637 18.3111Z" fill="#8AC8C2"/>
<path d="M24.2253 19.4034C24.9334 20.8483 25.3701 22.4071 25.5 23.9886C24.5558 22.6802 23.3755 21.5424 22.0181 20.6322C20.0943 19.3579 17.8163 18.5386 15.3613 18.3452C15.1567 18.0646 14.96 17.7688 14.7712 17.4578C13.7325 15.7056 13.1424 13.8169 12.989 11.9282C14.9482 12.0875 16.9075 12.645 18.7251 13.6576C19.0399 13.832 19.3468 14.0179 19.6458 14.2151C21.6759 15.5691 23.222 17.3781 24.2253 19.4034Z" fill="#5EA49B"/>
<path d="M25.5 23.9886C23.0332 27.4247 18.9258 29.6775 14.2637 29.6775C9.61334 29.6775 5.49415 27.4247 3.03915 23.9886C4.38468 22.0999 6.23773 20.5753 8.40945 19.574C9.53073 21.1442 11.0061 22.4867 12.8237 23.4994C16.8603 25.7408 21.5814 25.7749 25.5 23.9886Z" fill="#477E77"/>
<path d="M25.5 23.9886C21.5814 25.7749 16.8603 25.7408 12.8237 23.4994C11.0061 22.4867 9.53073 21.1442 8.40945 19.574C10.1799 18.7662 12.1746 18.3111 14.2637 18.3111C14.6335 18.3111 14.9994 18.3225 15.3613 18.3452C17.7573 21.7017 21.5224 23.6814 25.5 23.9886Z" fill="#5EA49B"/>
<path d="M25.5 23.9886C21.5224 23.6814 17.7573 21.7017 15.3613 18.3452C17.8163 18.5387 20.0943 19.3579 22.0181 20.6322C23.3755 21.5424 24.5558 22.6802 25.5 23.9886Z" fill="#8AC8C2"/>
</svg>
