<svg width="390" height="844" viewBox="0 0 390 844" fill="none" xmlns="http://www.w3.org/2000/svg">
<rect width="390" height="844" fill="#DCEFED"/>
<path d="M278.526 420.208C269.397 432.986 254.078 441.363 236.785 441.363C219.448 441.363 204.173 432.986 195 420.208C209.572 426.851 227.129 426.724 242.14 418.388C248.899 414.623 254.386 409.63 258.555 403.791C266.632 407.514 273.523 413.184 278.526 420.208Z" fill="#477E77"/>
<path d="M234.898 395.921C238.76 389.405 240.955 382.382 241.525 375.358C250.435 374.681 259.345 376.289 267.334 379.97C266.632 388.474 263.603 396.725 258.555 403.791C251.972 400.787 244.554 399.094 236.785 399.094C235.41 399.094 234.049 399.137 232.703 399.221C233.464 398.178 234.195 397.078 234.898 395.921Z" fill="#8AC8C2"/>
<path d="M195 420.208C209.792 419.065 223.793 411.703 232.703 399.221C234.049 399.137 235.41 399.094 236.785 399.094C244.554 399.094 251.972 400.787 258.555 403.791C254.386 409.63 248.899 414.623 242.14 418.388C227.129 426.724 209.572 426.851 195 420.208Z" fill="#5EA49B"/>
<path d="M216.946 379.97C216.946 372.438 215.19 365.33 212.03 358.941C219.404 354.075 227.963 351.156 236.785 350.479C240.56 358.18 242.228 366.811 241.525 375.358C234.239 375.95 226.953 378.024 220.194 381.789C219.023 382.438 217.882 383.129 216.77 383.862C216.887 382.593 216.946 381.296 216.946 379.97Z" fill="#CCE8E5"/>
<path d="M195 420.208C198.511 415.342 202.901 411.111 207.948 407.726C215.102 402.987 223.574 399.941 232.703 399.221C223.793 411.703 209.792 419.065 195 420.208Z" fill="#8AC8C2"/>
<path d="M177.97 358.941C181.789 351.198 187.714 344.555 195 339.69C202.286 344.555 208.212 351.198 212.03 358.941C206.017 362.961 200.794 368.292 196.887 374.766C196.214 375.922 195.585 377.093 195 378.277C194.415 377.093 193.786 375.922 193.113 374.766C189.206 368.292 183.983 362.961 177.97 358.941Z" fill="#8AC8C2"/>
<path d="M212.03 358.941C215.19 365.33 216.946 372.438 216.946 379.97C216.946 381.296 216.887 382.593 216.77 383.862C209.221 388.897 203.471 395.625 199.74 403.156C200.443 394.821 198.95 386.232 195 378.277C195.585 377.093 196.214 375.922 196.887 374.766C200.794 368.292 206.017 362.961 212.03 358.941Z" fill="#6FB7AF"/>
<path d="M195 420.208C195.483 414.326 197.107 408.53 199.74 403.156C203.471 395.625 209.221 388.897 216.77 383.862C217.882 383.129 219.023 382.438 220.194 381.789C226.953 378.024 234.239 375.95 241.525 375.358C240.955 382.382 238.76 389.405 234.898 395.921C234.195 397.078 233.464 398.178 232.703 399.221C223.574 399.941 215.102 402.987 207.948 407.726C202.901 411.111 198.511 415.342 195 420.208Z" fill="#5EA49B"/>
<path d="M169.806 381.789C163.047 378.024 155.761 375.95 148.475 375.358C147.772 366.811 149.44 358.18 153.215 350.479C162.037 351.156 170.596 354.075 177.97 358.941C174.81 365.33 173.054 372.439 173.054 379.97C173.054 381.296 173.113 382.593 173.23 383.862C172.118 383.129 170.977 382.438 169.806 381.789Z" fill="#CCE8E5"/>
<path d="M173.054 379.97C173.054 372.438 174.81 365.33 177.97 358.941C183.983 362.961 189.207 368.292 193.113 374.766C193.786 375.922 194.415 377.093 195 378.277C191.05 386.232 189.558 394.821 190.26 403.156C186.529 395.625 180.779 388.897 173.23 383.862C173.113 382.593 173.054 381.296 173.054 379.97Z" fill="#6FB7AF"/>
<path d="M199.741 403.156C197.107 408.53 195.483 414.326 195 420.208C194.517 414.326 192.893 408.53 190.26 403.156C189.558 394.821 191.05 386.232 195 378.277C198.95 386.232 200.443 394.821 199.741 403.156Z" fill="#8AC8C2"/>
<path d="M153.215 399.094C145.446 399.094 138.029 400.787 131.445 403.791C126.397 396.725 123.369 388.474 122.666 379.97C130.655 376.289 139.565 374.681 148.475 375.358C149.045 382.382 151.24 389.405 155.102 395.921C155.805 397.078 156.536 398.178 157.297 399.221C155.951 399.137 154.59 399.094 153.215 399.094Z" fill="#8AC8C2"/>
<path d="M190.26 403.156C192.893 408.53 194.517 414.326 195 420.208C191.489 415.342 187.1 411.111 182.052 407.726C174.898 402.987 166.426 399.941 157.297 399.221C156.536 398.178 155.805 397.078 155.102 395.921C151.24 389.405 149.045 382.382 148.475 375.358C155.761 375.95 163.047 378.024 169.806 381.789C170.977 382.438 172.118 383.129 173.23 383.862C180.779 388.897 186.529 395.625 190.26 403.156Z" fill="#5EA49B"/>
<path d="M195 420.208C185.827 432.986 170.552 441.363 153.215 441.363C135.922 441.363 120.603 432.986 111.474 420.208C116.478 413.184 123.369 407.514 131.445 403.791C135.614 409.63 141.101 414.623 147.86 418.388C162.871 426.724 180.428 426.851 195 420.208Z" fill="#477E77"/>
<path d="M195 420.208C180.428 426.851 162.871 426.724 147.86 418.388C141.101 414.623 135.614 409.63 131.444 403.791C138.028 400.787 145.446 399.094 153.215 399.094C154.59 399.094 155.951 399.137 157.297 399.221C166.207 411.703 180.208 419.065 195 420.208Z" fill="#5EA49B"/>
<path d="M195 420.208C180.208 419.065 166.207 411.703 157.297 399.221C166.426 399.941 174.898 402.987 182.052 407.726C187.099 411.111 191.489 415.342 195 420.208Z" fill="#8AC8C2"/>
<path d="M106.36 470.08V498H100.76V470.08H106.36ZM124.173 475.52C126.813 475.52 128.946 476.36 130.573 478.04C132.199 479.693 133.013 482.013 133.013 485V498H127.413V485.76C127.413 484 126.973 482.653 126.093 481.72C125.213 480.76 124.013 480.28 122.493 480.28C120.946 480.28 119.719 480.76 118.813 481.72C117.933 482.653 117.493 484 117.493 485.76V498H111.893V475.84H117.493V478.6C118.239 477.64 119.186 476.893 120.333 476.36C121.506 475.8 122.786 475.52 124.173 475.52ZM150.618 475.52C153.258 475.52 155.391 476.36 157.018 478.04C158.645 479.693 159.458 482.013 159.458 485V498H153.858V485.76C153.858 484 153.418 482.653 152.538 481.72C151.658 480.76 150.458 480.28 148.938 480.28C147.391 480.28 146.165 480.76 145.258 481.72C144.378 482.653 143.938 484 143.938 485.76V498H138.338V475.84H143.938V478.6C144.685 477.64 145.631 476.893 146.778 476.36C147.951 475.8 149.231 475.52 150.618 475.52ZM185.383 486.44C185.383 487.24 185.33 487.96 185.223 488.6H169.023C169.157 490.2 169.717 491.453 170.703 492.36C171.69 493.267 172.903 493.72 174.343 493.72C176.423 493.72 177.903 492.827 178.783 491.04H184.823C184.183 493.173 182.957 494.933 181.143 496.32C179.33 497.68 177.103 498.36 174.463 498.36C172.33 498.36 170.41 497.893 168.703 496.96C167.023 496 165.703 494.653 164.743 492.92C163.81 491.187 163.343 489.187 163.343 486.92C163.343 484.627 163.81 482.613 164.743 480.88C165.677 479.147 166.983 477.813 168.663 476.88C170.343 475.947 172.277 475.48 174.463 475.48C176.57 475.48 178.45 475.933 180.103 476.84C181.783 477.747 183.077 479.04 183.983 480.72C184.917 482.373 185.383 484.28 185.383 486.44ZM179.583 484.84C179.557 483.4 179.037 482.253 178.023 481.4C177.01 480.52 175.77 480.08 174.303 480.08C172.917 480.08 171.743 480.507 170.783 481.36C169.85 482.187 169.277 483.347 169.063 484.84H179.583ZM195.071 479.28C195.791 478.107 196.724 477.187 197.871 476.52C199.044 475.853 200.378 475.52 201.871 475.52V481.4H200.391C198.631 481.4 197.298 481.813 196.391 482.64C195.511 483.467 195.071 484.907 195.071 486.96V498H189.471V475.84H195.071V479.28ZM214.123 498.36C212.309 498.36 210.683 498.04 209.243 497.4C207.803 496.733 206.656 495.84 205.803 494.72C204.976 493.6 204.523 492.36 204.443 491H210.083C210.189 491.853 210.603 492.56 211.323 493.12C212.069 493.68 212.989 493.96 214.083 493.96C215.149 493.96 215.976 493.747 216.563 493.32C217.176 492.893 217.483 492.347 217.483 491.68C217.483 490.96 217.109 490.427 216.363 490.08C215.643 489.707 214.483 489.307 212.883 488.88C211.229 488.48 209.869 488.067 208.803 487.64C207.763 487.213 206.856 486.56 206.083 485.68C205.336 484.8 204.963 483.613 204.963 482.12C204.963 480.893 205.309 479.773 206.003 478.76C206.723 477.747 207.736 476.947 209.043 476.36C210.376 475.773 211.936 475.48 213.723 475.48C216.363 475.48 218.469 476.147 220.043 477.48C221.616 478.787 222.483 480.56 222.643 482.8H217.283C217.203 481.92 216.829 481.227 216.163 480.72C215.523 480.187 214.656 479.92 213.563 479.92C212.549 479.92 211.763 480.107 211.203 480.48C210.669 480.853 210.403 481.373 210.403 482.04C210.403 482.787 210.776 483.36 211.523 483.76C212.269 484.133 213.429 484.52 215.003 484.92C216.603 485.32 217.923 485.733 218.963 486.16C220.003 486.587 220.896 487.253 221.643 488.16C222.416 489.04 222.816 490.213 222.843 491.68C222.843 492.96 222.483 494.107 221.763 495.12C221.069 496.133 220.056 496.933 218.723 497.52C217.416 498.08 215.883 498.36 214.123 498.36ZM239.92 475.52C241.6 475.52 243.093 475.893 244.4 476.64C245.706 477.36 246.72 478.44 247.44 479.88C248.186 481.293 248.56 483 248.56 485V498H242.96V485.76C242.96 484 242.52 482.653 241.64 481.72C240.76 480.76 239.56 480.28 238.04 480.28C236.493 480.28 235.266 480.76 234.36 481.72C233.48 482.653 233.04 484 233.04 485.76V498H227.44V468.4H233.04V478.6C233.76 477.64 234.72 476.893 235.92 476.36C237.12 475.8 238.453 475.52 239.92 475.52ZM256.725 473.2C255.738 473.2 254.912 472.893 254.245 472.28C253.605 471.64 253.285 470.853 253.285 469.92C253.285 468.987 253.605 468.213 254.245 467.6C254.912 466.96 255.738 466.64 256.725 466.64C257.712 466.64 258.525 466.96 259.165 467.6C259.832 468.213 260.165 468.987 260.165 469.92C260.165 470.853 259.832 471.64 259.165 472.28C258.525 472.893 257.712 473.2 256.725 473.2ZM259.485 475.84V498H253.885V475.84H259.485ZM275.178 480.44H271.298V498H265.618V480.44H263.098V475.84H265.618V474.72C265.618 472 266.391 470 267.938 468.72C269.484 467.44 271.818 466.84 274.938 466.92V471.64C273.578 471.613 272.631 471.84 272.098 472.32C271.564 472.8 271.298 473.667 271.298 474.92V475.84H275.178V480.44ZM285.327 480.44V491.16C285.327 491.907 285.5 492.453 285.847 492.8C286.22 493.12 286.834 493.28 287.687 493.28H290.287V498H286.767C282.047 498 279.687 495.707 279.687 491.12V480.44H277.047V475.84H279.687V470.36H285.327V475.84H290.287V480.44H285.327Z" fill="#2E524D"/>
</svg>
